<mxfile host="app.diagrams.net" modified="2023-09-24T16:59:42.780Z" agent="Mozilla/5.0 (Macintosh; Intel Mac OS X 10_15_7) AppleWebKit/537.36 (KHTML, like Gecko) Chrome/116.0.0.0 Safari/537.36" etag="rFGQvTe2yaUW9X09d8RE" version="21.8.2" type="github">
  <diagram name="Page-1" id="SYSNdSqPSzTbUjuEkumr">
    <mxGraphModel dx="1159" dy="769" grid="0" gridSize="10" guides="1" tooltips="1" connect="1" arrows="1" fold="1" page="1" pageScale="1" pageWidth="1600" pageHeight="1200" math="0" shadow="0">
      <root>
        <mxCell id="0" />
        <mxCell id="1" parent="0" />
        <mxCell id="VImqTzRq71xbtA1GpdYO-1" value="AWS Cloud" style="points=[[0,0],[0.25,0],[0.5,0],[0.75,0],[1,0],[1,0.25],[1,0.5],[1,0.75],[1,1],[0.75,1],[0.5,1],[0.25,1],[0,1],[0,0.75],[0,0.5],[0,0.25]];outlineConnect=0;gradientColor=none;html=1;whiteSpace=wrap;fontSize=12;fontStyle=0;container=1;pointerEvents=0;collapsible=0;recursiveResize=0;shape=mxgraph.aws4.group;grIcon=mxgraph.aws4.group_aws_cloud_alt;strokeColor=#232F3E;fillColor=none;verticalAlign=top;align=left;spacingLeft=30;fontColor=#232F3E;dashed=0;" vertex="1" parent="1">
          <mxGeometry x="550" y="230" width="540" height="340" as="geometry" />
        </mxCell>
        <mxCell id="VImqTzRq71xbtA1GpdYO-2" value="Region" style="points=[[0,0],[0.25,0],[0.5,0],[0.75,0],[1,0],[1,0.25],[1,0.5],[1,0.75],[1,1],[0.75,1],[0.5,1],[0.25,1],[0,1],[0,0.75],[0,0.5],[0,0.25]];outlineConnect=0;gradientColor=none;html=1;whiteSpace=wrap;fontSize=12;fontStyle=0;container=1;pointerEvents=0;collapsible=0;recursiveResize=0;shape=mxgraph.aws4.group;grIcon=mxgraph.aws4.group_region;strokeColor=#147EBA;fillColor=none;verticalAlign=top;align=left;spacingLeft=30;fontColor=#147EBA;dashed=1;" vertex="1" parent="VImqTzRq71xbtA1GpdYO-1">
          <mxGeometry x="30" y="30" width="480" height="300" as="geometry" />
        </mxCell>
        <mxCell id="VImqTzRq71xbtA1GpdYO-3" value="VPC" style="points=[[0,0],[0.25,0],[0.5,0],[0.75,0],[1,0],[1,0.25],[1,0.5],[1,0.75],[1,1],[0.75,1],[0.5,1],[0.25,1],[0,1],[0,0.75],[0,0.5],[0,0.25]];outlineConnect=0;gradientColor=none;html=1;whiteSpace=wrap;fontSize=12;fontStyle=0;container=1;pointerEvents=0;collapsible=0;recursiveResize=0;shape=mxgraph.aws4.group;grIcon=mxgraph.aws4.group_vpc;strokeColor=#248814;fillColor=none;verticalAlign=top;align=left;spacingLeft=30;fontColor=#AAB7B8;dashed=0;" vertex="1" parent="VImqTzRq71xbtA1GpdYO-2">
          <mxGeometry x="30" y="30" width="420" height="250" as="geometry" />
        </mxCell>
        <mxCell id="VImqTzRq71xbtA1GpdYO-10" style="edgeStyle=orthogonalEdgeStyle;rounded=0;orthogonalLoop=1;jettySize=auto;html=1;" edge="1" parent="VImqTzRq71xbtA1GpdYO-3" source="VImqTzRq71xbtA1GpdYO-4" target="VImqTzRq71xbtA1GpdYO-7">
          <mxGeometry relative="1" as="geometry" />
        </mxCell>
        <mxCell id="VImqTzRq71xbtA1GpdYO-4" value="Staging" style="sketch=0;points=[[0,0,0],[0.25,0,0],[0.5,0,0],[0.75,0,0],[1,0,0],[0,1,0],[0.25,1,0],[0.5,1,0],[0.75,1,0],[1,1,0],[0,0.25,0],[0,0.5,0],[0,0.75,0],[1,0.25,0],[1,0.5,0],[1,0.75,0]];outlineConnect=0;fontColor=#232F3E;fillColor=#7AA116;strokeColor=#ffffff;dashed=0;verticalLabelPosition=bottom;verticalAlign=top;align=center;html=1;fontSize=12;fontStyle=0;aspect=fixed;shape=mxgraph.aws4.resourceIcon;resIcon=mxgraph.aws4.s3;" vertex="1" parent="VImqTzRq71xbtA1GpdYO-3">
          <mxGeometry x="80" y="90" width="40" height="40" as="geometry" />
        </mxCell>
        <mxCell id="VImqTzRq71xbtA1GpdYO-11" style="edgeStyle=orthogonalEdgeStyle;rounded=0;orthogonalLoop=1;jettySize=auto;html=1;" edge="1" parent="VImqTzRq71xbtA1GpdYO-3" source="VImqTzRq71xbtA1GpdYO-5" target="VImqTzRq71xbtA1GpdYO-7">
          <mxGeometry relative="1" as="geometry" />
        </mxCell>
        <mxCell id="VImqTzRq71xbtA1GpdYO-5" value="Processed" style="sketch=0;points=[[0,0,0],[0.25,0,0],[0.5,0,0],[0.75,0,0],[1,0,0],[0,1,0],[0.25,1,0],[0.5,1,0],[0.75,1,0],[1,1,0],[0,0.25,0],[0,0.5,0],[0,0.75,0],[1,0.25,0],[1,0.5,0],[1,0.75,0]];outlineConnect=0;fontColor=#232F3E;fillColor=#7AA116;strokeColor=#ffffff;dashed=0;verticalLabelPosition=bottom;verticalAlign=top;align=center;html=1;fontSize=12;fontStyle=0;aspect=fixed;shape=mxgraph.aws4.resourceIcon;resIcon=mxgraph.aws4.s3;" vertex="1" parent="VImqTzRq71xbtA1GpdYO-3">
          <mxGeometry x="250" y="90" width="40" height="40" as="geometry" />
        </mxCell>
        <mxCell id="VImqTzRq71xbtA1GpdYO-6" value="Event Trigger" style="sketch=0;outlineConnect=0;fontColor=#232F3E;gradientColor=none;fillColor=#7AA116;strokeColor=none;dashed=0;verticalLabelPosition=bottom;verticalAlign=top;align=center;html=1;fontSize=12;fontStyle=0;aspect=fixed;pointerEvents=1;shape=mxgraph.aws4.lambda_function;" vertex="1" parent="VImqTzRq71xbtA1GpdYO-3">
          <mxGeometry x="170" y="30" width="40" height="40" as="geometry" />
        </mxCell>
        <mxCell id="VImqTzRq71xbtA1GpdYO-7" value="CloudWatch Logs&lt;br&gt;" style="outlineConnect=0;dashed=0;verticalLabelPosition=bottom;verticalAlign=top;align=center;html=1;shape=mxgraph.aws3.cloudwatch;fillColor=#759C3E;gradientColor=none;" vertex="1" parent="VImqTzRq71xbtA1GpdYO-3">
          <mxGeometry x="170" y="160" width="40" height="40" as="geometry" />
        </mxCell>
        <mxCell id="VImqTzRq71xbtA1GpdYO-8" style="edgeStyle=orthogonalEdgeStyle;rounded=0;orthogonalLoop=1;jettySize=auto;html=1;entryX=1;entryY=0.5;entryDx=0;entryDy=0;entryPerimeter=0;" edge="1" parent="VImqTzRq71xbtA1GpdYO-3" source="VImqTzRq71xbtA1GpdYO-6" target="VImqTzRq71xbtA1GpdYO-4">
          <mxGeometry relative="1" as="geometry" />
        </mxCell>
        <mxCell id="VImqTzRq71xbtA1GpdYO-9" style="edgeStyle=orthogonalEdgeStyle;rounded=0;orthogonalLoop=1;jettySize=auto;html=1;entryX=0;entryY=0.5;entryDx=0;entryDy=0;entryPerimeter=0;" edge="1" parent="VImqTzRq71xbtA1GpdYO-3" source="VImqTzRq71xbtA1GpdYO-6" target="VImqTzRq71xbtA1GpdYO-5">
          <mxGeometry relative="1" as="geometry" />
        </mxCell>
        <mxCell id="VImqTzRq71xbtA1GpdYO-19" style="edgeStyle=orthogonalEdgeStyle;rounded=0;orthogonalLoop=1;jettySize=auto;html=1;entryX=0.5;entryY=1;entryDx=0;entryDy=0;strokeWidth=2;strokeColor=#006633;" edge="1" parent="1" source="VImqTzRq71xbtA1GpdYO-12" target="VImqTzRq71xbtA1GpdYO-13">
          <mxGeometry relative="1" as="geometry" />
        </mxCell>
        <mxCell id="VImqTzRq71xbtA1GpdYO-12" value="Monday Pull Connector" style="sketch=0;outlineConnect=0;fontColor=#232F3E;gradientColor=none;fillColor=#7AA116;strokeColor=none;dashed=0;verticalLabelPosition=bottom;verticalAlign=top;align=center;html=1;fontSize=12;fontStyle=0;aspect=fixed;pointerEvents=1;shape=mxgraph.aws4.connector;" vertex="1" parent="1">
          <mxGeometry x="130" y="260" width="78" height="29" as="geometry" />
        </mxCell>
        <mxCell id="VImqTzRq71xbtA1GpdYO-20" style="edgeStyle=orthogonalEdgeStyle;rounded=0;orthogonalLoop=1;jettySize=auto;html=1;strokeWidth=2;strokeColor=#00CCCC;" edge="1" parent="1" source="VImqTzRq71xbtA1GpdYO-13" target="VImqTzRq71xbtA1GpdYO-16">
          <mxGeometry relative="1" as="geometry" />
        </mxCell>
        <mxCell id="VImqTzRq71xbtA1GpdYO-22" style="edgeStyle=orthogonalEdgeStyle;rounded=0;orthogonalLoop=1;jettySize=auto;html=1;strokeWidth=2;strokeColor=#CC0066;" edge="1" parent="1" source="VImqTzRq71xbtA1GpdYO-13" target="VImqTzRq71xbtA1GpdYO-17">
          <mxGeometry relative="1" as="geometry">
            <Array as="points">
              <mxPoint x="408" y="455" />
            </Array>
          </mxGeometry>
        </mxCell>
        <mxCell id="VImqTzRq71xbtA1GpdYO-13" value="" style="shape=image;verticalLabelPosition=bottom;labelBackgroundColor=default;verticalAlign=top;aspect=fixed;imageAspect=0;image=data:image/png,iVBORw0KGgoAAAANSUhEUgAAAIsAAABlCAYAAAB9VxANAAAKrmlDQ1BJQ0MgUHJvZmlsZQAASImVlwdUU+kSgP97bzoJBBIindCbIJ0AUkIPoCAdbIQkQCgxBoKKFWRxBdeCigiWBV1pCq5KkbUiioVFsAAquiCLiLouFkRFZS9wCLvvnffeeZMzme9O5p+Z/z/3P2cCAIXOFYtTYCoAqaJ0SYivBzMqOoaJHwIIoAIG+m3D5aWJ2cHBgQCVGftP+dAFoEl713wy17///l9FkS9I4wEABaMcx0/jpaJ8BtXXPLEkHQDkKOrXW5UunuTrKNMlaIMo905ywjSPTHLcFGMwUzFhIZ4oqwBAIHO5kgQAyPqon5nBS0DzkL1QthTxhSKU0Wfgmpq6go8yWhcYozFilCfzs+L+lifhHznjZDm53AQZT+9lSghewjRxCnfN/3kc/1tSU6QzNQxRJSdK/EJQy0DPrCd5RYCMRXELg2ZYyJ+Kn+JEqV/4DPPSPGNmmM/1CpCtTVkYOMPxQh+OLE86J2yGBWneoTMsWREiqxUv8WTPMFcyW1eaHC7zJwo4svyZiWGRM5whjFg4w2nJoQGzMZ4yv0QaIutfIPL1mK3rI9t7atrf9ivkyNamJ4b5yfbOne1fIGLP5kyLkvXGF3h5z8aEy+LF6R6yWuKUYFm8IMVX5k/LCJWtTUdfyNm1wbIzTOL6B88w8ALeIBD9MEEwsAa2qFoDtNt0werJdxR4rhCvkQgTEtOZbPSWCZgcEc9iLtPa0toGgMk7O/1KvOuZuosQgzDrEy0HwG7yLDfM+nhjAJxVB0DpxaxPPwu9jsUAXLzKk0oypn2T1wlgAQkoADpQBVpADxgDc7Qze+AM3NGO/UEQCAPRYBnggUSQCiRgFVgHskAuyAc7wV5QDA6DI6ACnACnQAM4By6Da+AW6AD3wSPQBwbBSzACPoBxCILwEAWiQaqQNmQAmUHWEAtyhbyhQCgEioZioQRIBEmhddBmKB8qgIqhUqgS+hk6C12GbkCd0AOoHxqG3kKfYQQmw3RYEzaE58EsmA0HwGHwUjgBXglnwjnwdrgILoOPw/XwZfgWfB/ug1/CowhA5BAGooOYIyzEEwlCYpB4RIJsQPKQQqQMqUGakFbkLtKHvEI+YXAYGoaJMcc4Y/ww4RgeZiVmA2YbphhTganHtGDuYvoxI5hvWApWA2uGdcJysFHYBOwqbC62EHsMW4e9ir2PHcR+wOFwDJwRzgHnh4vGJeHW4rbhDuJqcZdwnbgB3Cgej1fFm+Fd8EF4Lj4dn4vfjz+Ov4i/gx/EfyTIEbQJ1gQfQgxBRMgmFBKqCBcIdwhDhHEilWhAdCIGEfnENcQdxKPEJuJt4iBxnKRIMiK5kMJISaQsUhGphnSV1Et6JycnpyvnKLdITii3Sa5I7qTcdbl+uU9kJbIp2ZO8hCwlbyeXky+RH5DfUSgUQ4o7JYaSTtlOqaRcoTyhfJSnyVvIc+T58hvlS+Tr5e/Iv1YgKhgosBWWKWQqFCqcVrit8IpKpBpSPalc6gZqCfUstZs6qkhTtFIMUkxV3KZYpXhD8bkSXslQyVuJr5SjdETpitIADaHp0TxpPNpm2lHaVdogHUc3onPoSfR8+gl6O31EWUnZVjlCebVyifJ55T4GwjBkcBgpjB2MU4wuxuc5mnPYcwRzts6pmXNnzpiKuoq7ikAlT6VW5b7KZ1Wmqrdqsuou1QbVx2oYNVO1RWqr1A6pXVV7pU5Xd1bnqeepn1J/qAFrmGqEaKzVOKLRpjGqqaXpqynW3K95RfOVFkPLXStJa4/WBa1hbZq2q7ZQe4/2Re0XTGUmm5nCLGK2MEd0NHT8dKQ6pTrtOuO6Rrrhutm6tbqP9Uh6LL14vT16zXoj+tr6C/TX6VfrPzQgGrAMEg32GbQajBkaGUYabjFsMHxupGLEMco0qjbqNaYYuxmvNC4zvmeCM2GZJJscNOkwhU3tTBNNS0xvm8Fm9mZCs4NmnXOxcx3niuaWze02J5uzzTPMq837LRgWgRbZFg0Wr+fpz4uZt2te67xvlnaWKZZHLR9ZKVn5W2VbNVm9tTa15lmXWN+zodj42Gy0abR5Y2tmK7A9ZNtjR7NbYLfFrtnuq72DvcS+xn7YQd8h1uGAQzeLzgpmbWNdd8Q6ejhudDzn+MnJ3ind6ZTTn87mzsnOVc7P5xvNF8w/On/ARdeF61Lq0ufKdI11/dG1z03HjetW5vbUXc+d737MfYhtwk5iH2e/9rD0kHjUeYx5Onmu97zkhXj5euV5tXsreYd7F3s/8dH1SfCp9hnxtfNd63vJD+sX4LfLr5ujyeFxKjkj/g7+6/1bAsgBoQHFAU8DTQMlgU0L4AX+C3Yv6F1osFC0sCEIBHGCdgc9DjYKXhn8yyLcouBFJYuehViFrAtpDaWFLg+tCv0Q5hG2I+xRuHG4NLw5QiFiSURlxFikV2RBZF/UvKj1Ubei1aKF0Y0x+JiImGMxo4u9F+9dPLjEbknukq6lRktXL72xTG1ZyrLzyxWWc5efjsXGRsZWxX7hBnHLuKNxnLgDcSM8T94+3ku+O38Pf1jgIigQDMW7xBfEP09wSdidMJzolliY+EroKSwWvknySzqcNJYclFyePJESmVKbSkiNTT0rUhIli1pWaK1YvaJTbCbOFfetdFq5d+WIJEByLA1KW5rWmE5Hh6M2qbH0O2l/hmtGScbHVRGrTq9WXC1a3bbGdM3WNUOZPpk/rcWs5a1tXqezLmtd/3r2+tIN0Ia4Dc0b9TbmbBzc5LupIouUlZz1a7ZldkH2+82Rm5tyNHM25Qx85/tdda58riS3e4vzlsPfY74Xft++1Wbr/q3f8vh5N/Mt8wvzv2zjbbv5g9UPRT9MbI/f3r7Dfsehnbidop1du9x2VRQoFmQWDOxesLt+D3NP3p73e5fvvVFoW3h4H2mfdF9fUWBR4379/Tv3fylOLL5f4lFSe0DjwNYDYwf5B+8ccj9Uc1jzcP7hzz8Kf+wp9S2tLzMsKzyCO5Jx5NnRiKOtP7F+qjymdiz/2NdyUXlfRUhFS6VDZWWVRtWOarhaWj18fMnxjhNeJxprzGtKaxm1+SfBSenJFz/H/tx1KuBU82nW6ZozBmcO1NHq8uqh+jX1Iw2JDX2N0Y2dZ/3PNjc5N9X9YvFL+TmdcyXnlc/vuEC6kHNh4mLmxdFL4kuvLidcHmhe3vzoStSVey2LWtqvBly9fs3n2pVWduvF6y7Xz91wunH2Jutmwy37W/Vtdm11v9r9Wtdu315/2+F2Y4djR1Pn/M4Ld9zuXL7rdffaPc69W/cX3u/sCu/q6V7S3dfD73n+IOXBm4cZD8cfberF9uY9pj4ufKLxpOw3k99q++z7zvd79bc9DX36aIA38PL3tN+/DOY8ozwrHNIeqnxu/fzcsM9wx4vFLwZfil+Ov8r9Q/GPA6+NX5/50/3PtpGokcE3kjcTb7e9U31X/t72ffNo8OiTD6kfxsfyPqp+rPjE+tT6OfLz0PiqL/gvRV9NvjZ9C/jWO5E6MSHmSrhTowCCKhwfD8DbcgAo0QDQOgAgLZ6eqacEmv4fMEXgP/H03D0l9gBUuwMQimoQqgc3AWCAuqmoDUafw9wBbGMj05n5d2pWnxTqcQBKW2ztAz1+Y/nO5JTJ9Bz/t77/1QJZ1n/YvwDKsgUxvayC2AAAADhlWElmTU0AKgAAAAgAAYdpAAQAAAABAAAAGgAAAAAAAqACAAQAAAABAAAAi6ADAAQAAAABAAAAZQAAAAA++Hr4AAAVpUlEQVR4Ae1d93Mcx5V+u9icsQAYQEIMYJApkpJFSRZLsuXSneVwVWf/sS7bP9lXlu9Ukk+RpEiKBBMIkIgL7GJz8vf1cqDFTM9swC6D0a+KXMxMT4fXr1/q93p8Kysr7fVyUG6uNKTVFgMGA3swMOEXuXg0IGdmUxKY4BVgwu8TnyGWPYgyF8RAhyharZb4U6m01Fs+w1UMZWgx4PP5JBCYkK2tbfGTsxiGosWTufkMAz78Ks5SrzekI4gMbgwG3DEQDAbFXyjkoa+0BSqLAYMBBwba7bY0mi1JJhPib8EEMnTiwJG50YUBEozf7xd/OBwyOksXYsyfTgyQUKrVmvgTiYQ0jDXkxJC5ozBAa4huleLODlQVXBhryFBGLwy0KIoqlYpSbo3e0gtdB/c5CYXqin8H7CUA1y0YjAGDAQcGqNw2lTWUpIvFUIkDQ+aGFgP+aDQiLTwyeosWP+YmMODz+aVUKos/Ho8rawjcxoDBgAMDam9owgdiKRpPvwM75oYeA2AmcPc/U3D1RcxdgwFEJLQlmYKCW60+M52NnmvIQoMByxoKh8MQQ0ZX0aDI3NJhwD+ZnZQGCMYouDr0mHtUcIMq+GmLwU8TkEnG5W/IwhsDjUbTWEPeKDJPLQy024jBXVtbk5AJfrJwYn5tGKCCWwdXmZmZ4a6zCaq04cdcumDAz8htAwYDvTDQbEJnyWQyUjPBT71wdWCfW9ZQbjNnFNwDSwWDDhxOW3hwq1BcTND2oLg7aOXD4Qj2hvIFBD9xG/qgDd+Mtx8MWNaQSgUxsU/9oMyUIQb8sVhc5Tkbd78hCB0GqOAyxblYLEogFotib6iBAKj2UHuKgReUytjU9JeidMLIUzXnDCvQHaEyzHzBGSflckUCrHk27ZdMLIS/OoqLfyIgrWZDNar7j+pwsz0hVexAbpcaUq23ZadaxzWO7aD+o3tpH/fI9VhvOOiTWHBCIviNRyYkEQbVq3NC2jD/J6RcbaEfTamgP+V655croB/6CcI3mUCduVJzHz0dzascbzKCxC7gt97ERQ+wpEI07Jeowo9ICmOJhLAJCK7QxFw2OF/AS77cAH5awE9LXfeouutxWwJ5KLiZREwOhUgsw0EVE5Mv1SVXbsmD1YrkK3Dg9DNDPZojEpr4bzYdlCOZkGTjAUlGA9gF9fY61xotKQApm8W6LG3WZbVQVxzHq0ttPHz7VEI+X9iRHfT/RYEKNMIiuIK+fPWwJHWMww1IRiw/mwrK8emIpEEgceIHYZBuQIW1CkIpYVFtYqFzvjaxQNw4jopnAYtKpBLi48lPdMyF9kEs3R2jeHiyVZf/u4PzPNDnYYmGhBLGcv/gTEzScQTeDCHuFDLRn1yhKp8tlIRE5EYwASD4v9+eklKtKX/8etMVed1jHfXfFBuxQFt+/da0Chn5281tRfS6dqg2REN+uTqfkGwCOT1D4If1cr6WN8vy1YOiOqfHWU179+QnzKU7Feo62eseUx2PZ0PyhytTMpcNDyySOMHMNZjLBuU/30jLZBL2vXMEvbqhnnNk7M90OiIfX0jJ7GQQk+Ctm8VCE/J79D0Wfr7bIBz3ZHRCPrqQVX12GyDLkbBPA8f/9eakTKeGW0hW/cTP3HRMPrmcVTi37tt/iTeV68w/Rg0hiIqfnkzIpbmIqrqfJtiLEBDx1mtxeXc+BZk7ugmLRwJy9WxaLh6PSRC77F4jDqPv759JQm8YXfte+KUomYwFMOak0sW8yobhFLs8F5MrZ9LqZAOvsoM8iwLXb59MyqXjUYUba76UNYTEeCYj+il+1Gqzng7SQo+yJJj5w3H56HzSlf13V0Fl9fJcVE4diqH8aDme1c65o3F5AwjpFU+aweRdPZeyXhvbLwklHQ3Kh+fTkkKbXlCDwvvOqbicmI72hU+vunTPqAueORKT9+fje+onZ+cpCgEe/6SDBrTwe6tllVPkfN7G6mxJGoMLBwNg2X6ldTvL0RLxyRRY5ZVTLfkGChtlpB14hwR7aS4hJ2ai9sd7ruvQO6jJl2qwfMo1qTU7qz880ZRENKTkeBS6jpsSTBqcP5yAleGX64+Lqn9uZJmAKPrdW1n56/dbUkF744Ap6BtXzyYlRDe6B1D3+48LCZmBSPUCElQZehf/0eigFYQTA6GDtWHxYr5CmC/oOoFnB0/a6+J8zU5GwIFbcmOpvPuYBBMge2GimX0lc1LvQlMuQmt2GwaZEc3YmWRQjk6GIfOoaOktlePZCMy2ltxcLjmUR7Z16VhEzh5xJxQqp483KvIUyjO1+DImjxO/FypAhE8hhfoJ23RDyuuzMXVOGhFCue0GESrZZ1Pyz3sF9H90VhI5Cgnl7ZNx4FCPM6tP7N4FcEMvQuHpTI+AHxoXm0WYxzb8cK4IXNgziQDmK6J0S/u8swzvnT4UhRuiLffXKmqBJ5M42rRer/O5FohCP0jFOSnPiqMArGZZytXlyXYdnCgo755Owl/hHDwn5CfHYrKCwWyV67tWEhnNHCb13GxC2wfepKn3xUJBNnbq6HjHb+I2wfSxEGGr+Y7Z/N6ZlKspeW42DmujKYvovxeQg74HfeJ/YJ2Q4+4XLNFDjtKLUNgWF+PpGXeOQr/JP25tSQF+JotxO/DzbD3Q17IId8IScPRoPajcBdRX7MBFdnkuLjngnNInCAkCRuCcWPuLva5JTKTcTVT86e1t1YDuHdryH57H2WRd1Md+zh8Kua5ucra/fLshK5h8IqLrVV0T6h7LsOyT7Zr8+et15VPQFWZ/TmEF9RIBfDcF/8UnlyaBtGdY11XYxz2SWjYelI9+ku6LUDiON44ntBySOF/PV+VP32zCt9VSc8De9eqhNV9c4J/dKSjpoes6ra6r4Ko+sAyepOBPp9OKckZhEbETdPb844ctRTi6DlDHOXMYyfgYKFcYnW3TKb1DkIigvsBzesmKBwUSJVWNv2PVcYXoYAYOrSP41w+QC/yCiihM3GGAY54CobwDh1s/BEp18vRUUDJxfXsb8B99cb84TFfUO8QpRdant/NKv9FVRF/OsamwbG/DbzYKztLdCAmmBrf//9/bgfvd6X3k86PpkHLdIw5YTk/DT8CbNqBOcu1xWWpgm8MQilUd6y5C9lKZpd5jB8rn8xCPOsXbXpbXaXAYmriDchglemCKvwcnWi+rx2qXaLl4ImldOn4/v1dUupvjwQA3iNsiPNbfPoK32AU/FEnqHFw3a2iA9hxFOUju0dxZqSjWaC+QhQxOwe8RhTI6nQ7bH6vrh2tFWS80+hI72gq6brI/T8Fy6anUAQkggb70Cyz/qzcmlXOsn3fAUOBHCcrHFzN9O/v4zsnpADiQU03gs8/v5pW3uf9eu/eU+FnHlggVZDfgovJvbm4qC4YXo4alXBX7LE7uQuUrHZuQc4f1hFKB2ff9cgV6zOh6xDa511IjO9PABVhjgwBF0i+hd/QSSZboITdyKJ0eDVItOJrR42cLIvXRZm2kO+zkufdg/dq5L/vBYO1sNksJMHoisXBQhHa+lq9Zl3t+D0FPOH04tueedUFzTcMRrcdD/7LOxQ09dzmccTfb3Rqk0kvrLwK5rgNL9LxzGqJnQD2Hu8UJOOt08BAcYD+iWVcnqWCr1IJu55wvi0b8PGZ7fOCDGVvVVn84RYeeXnG7v151+GK0lQx4k9bPwope0XXzx2wXq3JreUcrTtk8zeqPL2QcPaGlksFk/+rypAp9cBTADRLTg9WSVu/gGtYtY+oVeewS657p2hjkng8e9MfgWDpoNHBsfyqVGpk1ZG+E1L+ad4ohlmOOtQ6q+JYAvZDjghpMwBqdQ30CvZ3XH1fAoktqcnWvUSR9AqKw9pJIKFOJoPwM+0tecOdJSW4/pV7X/3jpuaYHexxAY2AZqkM3KF0F7pWtLSTGdz8Yx9/Qcx1y0KsdEso40/Q5LXRiDQIMB7gBy+w+tj/cgFsD1Eui+KUCzHiUpIfo+e5hAdYetz/catTfp1OwNgLHoL52uD70jFcVD5TLZRXLYsklt0r2c58BTP1CC4jov3S/tXaVQ+VN+G0GAZYmwfwTpiph3kXX4t7LxxfSwl1rL7j2qKA4yjChFwqVY0QQ66dCa3F+cj1azNwS8jMQd9zgov/pm+XMjBEZFPb8CsowQEfad4tl6D0QSTRzNNCLUG4vF+UORM8gllF3M8oeGYzWu1/v+Tfrtwilu3A0yp36MQNjiHSNuzVLy2KcKW/Ecz/7MW79o1LKzcf7a+4iye1dip7rED0M4RwW6HfpRZDD1k2u4mW1qVxnsplBlKx+O8PFdwhWjw7I6nTA7QAGZo8LQjBJQy5WWD9tsmfUG758UFIcpp93WIaEchtOSor7/YyOu/yRHuEM/fbJXo4KAK3UbrAU3Hw+LzhFQe0mqkF0FxrF3yTA4wit1AG1bgZ66+AsNhapI4waWOf8Yb2rwI143fpAtYQucoqkXlsFSvSAUAZJU+Eq12GAcTrUjXTP3Pra7/02TgA7Nqnfp2N0ghJDRNQ4OAtDFRhMrIONYkserutZOSPBeuiIuio97xH5FIlzU3rn23JO3xfPSvGQIumBh0iiMnsDomfQfYs6zKQdhHLoYA4be6NeSyS+LOJcJhP6xU36UO5+6hTjsIaOISAqgT0gO9CxlMNu560ne216qxzFBONMBzUrrfd1v7TI3nwthr0WvX9n4am+L7q6uu9RJH2NbQRyGDtQ9Nx6gv2WIUQP58PNoZmBD4e70YNYmfa+2a8pGl8DEdp3w0kkZCbK3T8OjsJVTL/DWYQi6HS5HPJ5uNFYwnbA+rZ+ko5lozKdBLsdAb9lHUeRezSLOnWQK9QkVxm+ITofLYKhSGJ7u6JnSL88J+/hBh2UTkcMn12ZTyscD9/rHzHB/jLA6iQiAHRg6S0jD1FgwyHkvnA/JBp2chVaE483Kyobjov8Hlz7vGcHxlEw0jwEhW4/LJd1M1Pv4vG4dgeXz3+gPjHkpFr95uuWSPoB2wM3lgYXPVZd3b/XwZ3c4F0EbxNP+wHiltmd5Lq6uGVODbMiVYjCKIOfWDH1lA/PpSH/9Iokg6PurzOsspOA9nSrhmgv/X4Ec2KYGcDUjWEIhoRAXH70OvKPXPqzhgg8RuGNAiiSri2W5CZFD2wecoD9wkOEfG4V9YbAVDIs74Fghg12JE6Z5fnz8ynE2Ojnq1xjZmdjNMFPaE+xXYqbabCyD85lMDF6pZZK29+/z+1RphGNIAurNVeLIoUc7N+8OaXECAmMBNkLrDLHEIX3259OS5yarQbYn4WnCLAa4V4UJ2AYwtZ0T93iWK4t7rgEJgHnWFC/QYJYCouUHmGW90IRn7EMcclEvg/OIVfJBT8k/i8WisoBSc4S4G4iZZJOwWXF8MCIyj23jcaakDhYPInkaCboamnwVcryGxg0oxu782rZaca93FxCVNicfuONaazvIxb0EaynVQQxMTeXsbnsg6UTWQhg9DpXC03AWQSC66LwrKHchrhYRpyuVxmr7Iv8XYNOtYB9qdcRYK4DFVuDYKylzSoCvKqyjjADhhEBtbtgzRcT7jlfs8QPIvzdgNkC34FL5pBJcXIqhMjAoAQKhYJw59kODNa9cDSCTTcnCyRyg3AMpZCnQ+2Zm2fdBGCvi9eMI3mwjkQlUocNeOsmgp3okHNLB6FOweSzuSnsumLnlT4aEoylAJJoMmClDHugHHcLObCavoWUFFpjukVilXl5fn0KPwxvOTGjJxji9QSS42fBTZmvzRMYihWcbIFNU84X54lcWs0XouS9dLSOHleWh4grIp+yPgLummTGyk5icvYLpOhNBBZ/BY+nF7C9G4iT5WBem9JbUXyfRJCM8l9Apr0qdHnG/tyDX4T5Sy87R+keAq3Wz+52cMjcZLe+U0lNW04ql0D47nrtf5NQGF75PXbZMSUKlI8FilHASl+1vzSKa656RnVdg6ezH4CIlO8edQKr5w8xIX5/mr69TcrdO9BRGENCvcLJ4+xvvFzXXEjfLlaQ7cD0mb0ppqPoKbnQXfiLyOUtQmG9nAeVvqo+Ag69hdQzSpZM8fXlQh5nozjFmNvAOHmM1bgOWbkOC+UyItupE40CdpBX8w3MUFo/9Fy8aoRi4YBmLGNr1rYa8g6Cqxh+OQqgSP/mwY48BX66CYU0Qa7Pj4AHRkkgWKxKc76/WlQrQLEvKhMDAEuznmWVVbihEsGPTGJ7HB0erKaO1k+2urRRUmKwib0PdmfQegbo/tiLsu/0bD/BpDK57GdILZmBReSlg7h1ypqvRYRSfon0XF53E0r3e8RjgB8B52bisIA6VORZ56SlmlJiC8hD4abZfgiRk9pAkNL/3i1KNlqSOSTMM5OPW+jcpnermwRKdsrTm9Zhei3CgsqV2z1PfnIbv1s7buWf5306dz/9oSCHkhU5hjxznu+SgC7nFtvMvlnzlS/VkEaM/GgosTmk8FJBdltEJBR+BDxQLOLcjXBC8tsURf0PlYlk1LYZhkfWSGcbNXBO8iC7q14tsi6wPtmGUr6NoKNQsIL8ns4JCfQhJfGfNUB2vYDOsD/UlUogmGqtMyCdBWZvlwhZWHEGgnXEs730aK7Zd6aFckOV+kg3UKeyLL3u+91/8w3imvlV/BcGTnimHF0NCYhvWqnkFCxH8V6Dgw1WuPIrce5qzU6mpxd+OP7OR8CRxspjwtbLQbm50sDGVHdXev/t1Ujvt/dXQu3B2KrYL6G6hUWMe5y6sXBoHe5sG2SflyR+u3NwuHH8eExYQH0EHGxI6QQDEkuf/R5LsWFkdK+ODIfMXrX2fj6OsdC0dtM/evdobwnzEfC9+DBXLhigzkYHrfkIuAuCzG0NBiB1zEfANXgxt/ZigPrP7kfA9z4yVwYDP2LAsoZ2PwKuzKu9ltuPpc1fBgPPMGA+Am5IwRMDVHDNR8A9UWQe2jFgPgJux4i5dsWA+Qi4K2rMAwsDVHDNR8AtbJjfvjFgPgLeN6oOdkEmmpmPgB9sGug5essaMh8B74kqU2AXA/DDmY+A72LD/OGFAfMRcC/smGcKA5Y1ZD4CbghiIAyYj4APhK6DV5gKrvURcBALPwI+zsNEDx6C/91GzKg7fgR8NEkn/27YMePRYAAnPzHXOYDMdxOhoMGPuaWSDxlQzmREmM48RQDpAoZaDGm4YIBpv5GI+r62oRIXHJnbXRigCe2Pg70oBfcVSgPpGoP5c8wYUNYQEuPVR8CZlshkJEMrY8b6K1w9c8qUukJ5ZATRKzyTz6nrJJhOKggO+DMK7nPC+ivWDFQVdcQbPwLu5zHb5CyGu7xis/jcuts51nRkHwF/bv02Db0QDFDJVR8Bz2TS6uOV9oz7F9Ir0+hLhwESCs/xy+e3cYYLzCKquOoceGMSvXST9aI7RMWWQM7yL2J51QNuMu/oAAAAAElFTkSuQmCC;" vertex="1" parent="1">
          <mxGeometry x="380" y="309" width="55.05" height="40" as="geometry" />
        </mxCell>
        <mxCell id="VImqTzRq71xbtA1GpdYO-14" style="edgeStyle=orthogonalEdgeStyle;rounded=0;orthogonalLoop=1;jettySize=auto;html=1;entryX=0.5;entryY=0;entryDx=0;entryDy=0;strokeWidth=2;strokeColor=#CC6600;" edge="1" parent="1" source="VImqTzRq71xbtA1GpdYO-5" target="VImqTzRq71xbtA1GpdYO-13">
          <mxGeometry relative="1" as="geometry">
            <Array as="points">
              <mxPoint x="880" y="320" />
              <mxPoint x="970" y="320" />
              <mxPoint x="970" y="140" />
              <mxPoint x="408" y="140" />
            </Array>
          </mxGeometry>
        </mxCell>
        <mxCell id="VImqTzRq71xbtA1GpdYO-21" style="edgeStyle=orthogonalEdgeStyle;rounded=0;orthogonalLoop=1;jettySize=auto;html=1;entryX=0;entryY=0.5;entryDx=0;entryDy=0;" edge="1" parent="1" source="VImqTzRq71xbtA1GpdYO-15" target="VImqTzRq71xbtA1GpdYO-13">
          <mxGeometry relative="1" as="geometry" />
        </mxCell>
        <mxCell id="VImqTzRq71xbtA1GpdYO-15" value="Alchemer Pull Connector&lt;br&gt;" style="sketch=0;outlineConnect=0;fontColor=#232F3E;gradientColor=none;fillColor=#7AA116;strokeColor=none;dashed=0;verticalLabelPosition=bottom;verticalAlign=top;align=center;html=1;fontSize=12;fontStyle=0;aspect=fixed;pointerEvents=1;shape=mxgraph.aws4.connector;" vertex="1" parent="1">
          <mxGeometry x="130" y="380" width="78" height="29" as="geometry" />
        </mxCell>
        <mxCell id="VImqTzRq71xbtA1GpdYO-16" value="Monday Push Connector" style="sketch=0;outlineConnect=0;fontColor=#232F3E;gradientColor=none;fillColor=#7AA116;strokeColor=none;dashed=0;verticalLabelPosition=bottom;verticalAlign=top;align=center;html=1;fontSize=12;fontStyle=0;aspect=fixed;pointerEvents=1;shape=mxgraph.aws4.connector;" vertex="1" parent="1">
          <mxGeometry x="130" y="320" width="78" height="29" as="geometry" />
        </mxCell>
        <mxCell id="VImqTzRq71xbtA1GpdYO-17" value="Alchemer Push Connector" style="sketch=0;outlineConnect=0;fontColor=#232F3E;gradientColor=none;fillColor=#7AA116;strokeColor=none;dashed=0;verticalLabelPosition=bottom;verticalAlign=top;align=center;html=1;fontSize=12;fontStyle=0;aspect=fixed;pointerEvents=1;shape=mxgraph.aws4.connector;" vertex="1" parent="1">
          <mxGeometry x="130" y="440" width="78" height="29" as="geometry" />
        </mxCell>
        <mxCell id="VImqTzRq71xbtA1GpdYO-26" style="edgeStyle=orthogonalEdgeStyle;rounded=0;orthogonalLoop=1;jettySize=auto;html=1;strokeWidth=2;strokeColor=#6666FF;" edge="1" parent="1" source="VImqTzRq71xbtA1GpdYO-18" target="VImqTzRq71xbtA1GpdYO-5">
          <mxGeometry relative="1" as="geometry" />
        </mxCell>
        <mxCell id="VImqTzRq71xbtA1GpdYO-18" value="Web App" style="outlineConnect=0;dashed=0;verticalLabelPosition=bottom;verticalAlign=top;align=center;html=1;shape=mxgraph.aws3.apps;fillColor=#759C3E;gradientColor=none;" vertex="1" parent="1">
          <mxGeometry x="144" y="510" width="50" height="50" as="geometry" />
        </mxCell>
        <mxCell id="VImqTzRq71xbtA1GpdYO-23" style="edgeStyle=orthogonalEdgeStyle;rounded=0;orthogonalLoop=1;jettySize=auto;html=1;entryX=1;entryY=0.5;entryDx=0;entryDy=0;entryPerimeter=0;strokeColor=#FF66B3;strokeWidth=2;" edge="1" parent="1" source="VImqTzRq71xbtA1GpdYO-13" target="VImqTzRq71xbtA1GpdYO-18">
          <mxGeometry relative="1" as="geometry">
            <Array as="points">
              <mxPoint x="420" y="535" />
            </Array>
          </mxGeometry>
        </mxCell>
        <mxCell id="VImqTzRq71xbtA1GpdYO-24" style="edgeStyle=orthogonalEdgeStyle;rounded=0;orthogonalLoop=1;jettySize=auto;html=1;entryX=0;entryY=0.5;entryDx=0;entryDy=0;entryPerimeter=0;strokeWidth=2;strokeColor=#FF0000;" edge="1" parent="1" source="VImqTzRq71xbtA1GpdYO-15" target="VImqTzRq71xbtA1GpdYO-4">
          <mxGeometry relative="1" as="geometry" />
        </mxCell>
        <mxCell id="VImqTzRq71xbtA1GpdYO-25" value="Metadata" style="text;html=1;align=center;verticalAlign=middle;resizable=0;points=[];autosize=1;strokeColor=none;fillColor=none;" vertex="1" parent="1">
          <mxGeometry x="655" y="118" width="70" height="30" as="geometry" />
        </mxCell>
      </root>
    </mxGraphModel>
  </diagram>
</mxfile>
